<svg id="Layer_1" data-name="Layer 1" xmlns="http://www.w3.org/2000/svg" viewBox="0 0 3941.54 3941.53"><defs><style>.cls-1,.cls-10,.cls-3,.cls-4,.cls-5,.cls-6,.cls-7,.cls-8,.cls-9{fill-rule:evenodd;}.cls-2,.cls-3{fill:#83d5f0;}.cls-4{fill:#16b0e3;}.cls-5{fill:#fff;}.cls-6{fill:#1180a5;}.cls-7{fill:#135a72;}.cls-8{fill:#083c4d;}.cls-9{fill:#1e8db2;}.cls-10{fill:#55c5eb;}</style></defs><polygon class="cls-1" points="0 0 3941.54 0 3941.54 3941.53 0 3941.53 0 0 0 0"/><path class="cls-2" d="M1245.45,968.63c277.2-230.5,621.6-326.83,954.33-296.23s653.78,188.14,884.28,465.35,326.83,621.61,296.23,954.33-188.15,653.78-465.35,884.29-621.61,326.83-954.33,296.22-653.78-188.13-884.28-465.34S749.49,2185.64,780.1,1852.92s188.14-653.78,465.35-884.29Zm951.84-269.26c-325.81-30-663.07,64.36-934.53,290.09S837,1529.57,807.06,1855.4s64.36,663.07,290.09,934.53,540.12,425.73,865.94,455.71,663.07-64.37,934.54-290.1,425.72-540.11,455.7-865.94-64.37-663.07-290.1-934.53-540.11-425.73-865.94-455.7Z" transform="translate(-29.23 -29.62)"/><path class="cls-2" d="M1176.09,885.23c300.24-249.66,673.26-354,1033.63-320.85s708.09,203.78,957.75,504,354,673.25,320.84,1033.62-203.77,708.1-504,957.76-673.26,354-1033.63,320.84-708.09-203.78-957.75-504S638.93,2203.35,672.08,1843s203.77-708.1,504-957.75ZM2208.7,575.4C1851.16,542.52,1481.06,646,1183.17,893.74S716,1486.45,683.1,1844s70.62,727.64,318.33,1025.54,592.71,467.18,950.26,500.07,727.64-70.63,1025.53-318.33,467.19-592.72,500.07-950.26S3406.67,1373.37,3159,1075.47,2566.25,608.29,2208.7,575.4Z" transform="translate(-29.23 -29.62)"/><path class="cls-3" d="M863.52,1209.23a27.35,27.35,0,1,1-3.55,38.52,27.35,27.35,0,0,1,3.55-38.52Z" transform="translate(-29.23 -29.62)"/><path class="cls-3" d="M796.22,2248.81a50.31,50.31,0,1,1-6.52,70.86,50.31,50.31,0,0,1,6.52-70.86Z" transform="translate(-29.23 -29.62)"/><path class="cls-3" d="M3467.25,1841.4a32.22,32.22,0,1,1-4.18,45.39,32.23,32.23,0,0,1,4.18-45.39Z" transform="translate(-29.23 -29.62)"/><path class="cls-3" d="M3239,1416.3a35,35,0,1,1-4.53,49.25,35,35,0,0,1,4.53-49.25Z" transform="translate(-29.23 -29.62)"/><path class="cls-3" d="M2868.54,2083.52s-138.61,91.48-133.31,96.09,3.27,15.35,133.31-96.09Z" transform="translate(-29.23 -29.62)"/><polygon class="cls-3" points="2134.6 818.48 2135.62 839.62 2156.1 844.97 2134.96 845.99 2129.61 866.46 2128.59 845.33 2108.12 839.98 2129.25 838.96 2134.6 818.48 2134.6 818.48"/><polygon class="cls-3" points="3173.48 2088.92 3178.05 2116.94 3206.16 2120.96 3178.14 2125.54 3174.12 2153.65 3169.54 2125.62 3141.43 2121.61 3169.46 2117.03 3173.48 2088.92 3173.48 2088.92"/><path class="cls-3" d="M1287.33,1934.73a24.79,24.79,0,1,1-22.55,26.85,24.8,24.8,0,0,1,22.55-26.85Z" transform="translate(-29.23 -29.62)"/><path class="cls-3" d="M1244.25,2611.9a16.86,16.86,0,1,1-15.34,18.26,16.85,16.85,0,0,1,15.34-18.26Z" transform="translate(-29.23 -29.62)"/><path class="cls-3" d="M1088.37,2006.73a10.91,10.91,0,1,1-9.92,11.81,10.91,10.91,0,0,1,9.92-11.81Z" transform="translate(-29.23 -29.62)"/><path class="cls-3" d="M1021.57,2361.13a15.87,15.87,0,1,1-14.43,17.18,15.87,15.87,0,0,1,14.43-17.18Z" transform="translate(-29.23 -29.62)"/><path class="cls-3" d="M1375.22,2155.43a6.94,6.94,0,1,1-6.32,7.51,6.92,6.92,0,0,1,6.32-7.51Z" transform="translate(-29.23 -29.62)"/><path class="cls-3" d="M1369.57,1802.61a8.93,8.93,0,1,1-8.13,9.67,8.92,8.92,0,0,1,8.13-9.67Z" transform="translate(-29.23 -29.62)"/><path class="cls-3" d="M1512.75,1728.7a8.93,8.93,0,1,1-8.12,9.67,8.92,8.92,0,0,1,8.12-9.67Z" transform="translate(-29.23 -29.62)"/><path class="cls-3" d="M1689.33,1572.19a14.68,14.68,0,1,1-13.35,15.89,14.68,14.68,0,0,1,13.35-15.89Z" transform="translate(-29.23 -29.62)"/><path class="cls-3" d="M1258.33,1610.49a12.32,12.32,0,1,1-11.21,13.34,12.32,12.32,0,0,1,11.21-13.34Z" transform="translate(-29.23 -29.62)"/><path class="cls-3" d="M1689,1466.7a5.18,5.18,0,1,1-4.72,5.61,5.18,5.18,0,0,1,4.72-5.61Z" transform="translate(-29.23 -29.62)"/><path class="cls-3" d="M2778.38,1135.29a19.68,19.68,0,1,1-17.91,21.31,19.69,19.69,0,0,1,17.91-21.31Z" transform="translate(-29.23 -29.62)"/><path class="cls-3" d="M3076.29,1888.32a13.81,13.81,0,1,1-12.56,15,13.82,13.82,0,0,1,12.56-15Z" transform="translate(-29.23 -29.62)"/><path class="cls-3" d="M3036.54,2255.71a13.81,13.81,0,1,1-12.57,15,13.82,13.82,0,0,1,12.57-15Z" transform="translate(-29.23 -29.62)"/><path class="cls-3" d="M2670.46,1651.31a9.34,9.34,0,1,1-8.51,10.12,9.34,9.34,0,0,1,8.51-10.12Z" transform="translate(-29.23 -29.62)"/><path class="cls-3" d="M2937,1641.66a9.35,9.35,0,1,1-8.5,10.12,9.34,9.34,0,0,1,8.5-10.12Z" transform="translate(-29.23 -29.62)"/><path class="cls-3" d="M2419.17,1314.09a14,14,0,1,1-12.78,15.21,14,14,0,0,1,12.78-15.21Z" transform="translate(-29.23 -29.62)"/><path class="cls-3" d="M2627.57,1348.24a20.52,20.52,0,1,1-18.67,22.22,20.51,20.51,0,0,1,18.67-22.22Z" transform="translate(-29.23 -29.62)"/><path class="cls-3" d="M2630.79,1204.76a8.9,8.9,0,1,1-8.1,9.63,8.89,8.89,0,0,1,8.1-9.63Z" transform="translate(-29.23 -29.62)"/><path class="cls-3" d="M2816.58,1405.61a12.58,12.58,0,1,1-11.45,13.62,12.58,12.58,0,0,1,11.45-13.62Z" transform="translate(-29.23 -29.62)"/><path class="cls-3" d="M1605.16,1240a17.23,17.23,0,1,1-15.68,18.66,17.24,17.24,0,0,1,15.68-18.66Z" transform="translate(-29.23 -29.62)"/><path class="cls-3" d="M1412.55,1363.94a10.29,10.29,0,1,1-9.36,11.15,10.29,10.29,0,0,1,9.36-11.15Z" transform="translate(-29.23 -29.62)"/><path class="cls-3" d="M1192.48,1337.34a10.29,10.29,0,1,1-9.36,11.15,10.29,10.29,0,0,1,9.36-11.15Z" transform="translate(-29.23 -29.62)"/><path class="cls-3" d="M1557.64,961.56a10.29,10.29,0,1,1-9.36,11.14,10.29,10.29,0,0,1,9.36-11.14Z" transform="translate(-29.23 -29.62)"/><path class="cls-3" d="M2427.09,978.41a10.29,10.29,0,1,1-9.36,11.13,10.28,10.28,0,0,1,9.36-11.13Z" transform="translate(-29.23 -29.62)"/><path class="cls-3" d="M1062.83,1754.56l11.66-1.68a227.47,227.47,0,0,0,24.27-5.27,459.17,459.17,0,0,0,64-22.12c64.56-27.52,123.09-68,172.59-117.59-9.67,1.2-20.06,3.29-24.43,4.19-10,3-40,29.44-48.45,37-15.51,13.9-31.56,28.88-45.75,44.13-32.56,35-95.74-18-105.32-52.44-5.24-18.89,5.38-43.43,14-60,2.31-4.44,4.76-8.87,7.34-13.24q-9.56.45-19.12.87c-16.42.71-33.09,1.52-49.52,1.52-20.86,0-44.77-10.42-61.3-22.67-24.65-18.27-40.81-46.18-33.22-77.47,5.38-22.2,19.09-38.35,39.78-45.24A167.51,167.51,0,0,1,998,1404.2c-9.2-20.33-13.27-43.53-2.9-64.26,8.89-17.78,24.24-28.29,43.93-30.31a72.16,72.16,0,0,1,9.06-.35,63.4,63.4,0,0,1,5.3-14.26c8.76-16.94,24.17-29,43-32.5,14.22-2.65,27.85.38,40.46,7.11l1.44.79a64.9,64.9,0,0,1,5.56-8.06l-4.17-4.17,7,.91.24-.25c14.22-15,33.67-20.79,54-19.29,45.68,3.39,94.55,64.52,123.89,96.87,1.84,2,9.12,9.56,12.22,9.94,2-.41,5.29-2.24,7.13-3.17a79.32,79.32,0,0,1,17.42-6.89c3.69-.89,6.6-1.93,9.34-4.58a92.42,92.42,0,0,0,6.34-7.34,122.16,122.16,0,0,1,11.88-12.62c23.43-21.3,53.92-12.6,80.06-2.15a43,43,0,0,0,9.13,2.43c8.36,1.37,17.31,1,25.7.1,2.47-.27,5.23-.72,8-1.17,2.36-7.43,4.52-17.45,5.81-22.9,2.83-12,5.47-24.11,7.85-36.21l1.82-9.29,8.52-4c11.32-5.38,28-13.26,41.21-16.78.21-1.67.36-3.6.5-5.56-12.88-8.76-50-24.39-59.14-25.25-20.68,0-47.41-9-63.6-22.37-1.45.93-3,2-4,2.7a101.94,101.94,0,0,1-16.53,9.21c-12.87,5.52-27.35,5.78-40.79,2.29a70.56,70.56,0,0,1-15.2-5.86c-3.28,2.35-6.69,5.07-8.9,6.75-9.08,6.91-18,13.93-27.3,20.62-9.42,6.82-19.31,13.54-29.62,18.92-18.45,9.62-41.44,13.3-62,11.15-32.32-3.37-59.73-20.81-71.43-52.14a69.38,69.38,0,0,1-4.29-22.12c-.74-23.58,10.51-48.87,25.45-70.21l-5.38-.58a812.92,812.92,0,0,1-104.49-18.57c-37.61-9.24-73.55-28.25-98.08-58.81q-3-3.74-5.74-7.71l-4.85-7.58C969.55,975.94,963,951.57,967.2,927.6c4.36-24.56,19.95-41.86,45.17-44.75,1.15-.14,2.34-.24,3.55-.3.16-1.49.38-3,.65-4.45L1019,869a65,65,0,0,1,15.27-24.26c12.21-12.21,28.44-16.45,44.64-15.15-.09-13.49,7-26.29,17.51-34.6,13.84-11,31.6-13.27,48.53-9.64,16.21,3.47,32.26,14.61,44.87,25,4.76,3.93,10.12,8.67,15.49,13.77,13.48-11.45,38.41-10.64,53.85-7.83,11.23,2,23,6,32.35,12.65,14.49,10.35,30.59,20.25,46.37,29.62,5.17-5.8,11-11.17,16.74-14.78,18.52-11.58,49.64-2.32,70.16.41,17.67,2.35,35.94,4.1,53.79,3.51a245.41,245.41,0,0,0,32.68-3.71c15.91-2.66,30.32-4.43,46.54-4.43,41.89,0,71.2,13.79,107.4,31.89,7.79,3.89,21.49,7.22,30,9.49,12.73,3.4,25.58,6.5,38.45,9.45a234.32,234.32,0,0,1,21.47-19.64c31.11-25,67.91-40.55,108.08-42a184.75,184.75,0,0,1,29.18,1.28c40.84,5,79.1,22.31,115.81,39.94,31.22,15,64.18,32,97.85,40.47,35.56,8.89,72,17.18,108.26,24.26a404.11,404.11,0,0,1,56.26-45.09c8.51-5.64,18.31-11.66,28.55-17.27.46-6.59,1.63-12.52,4-16.43,6.16-10.28,27.26-18.42,38.16-23,7.17-3,14.44-5.9,21.73-8.68l2.83-17,10.71-3.54c21-7,42-14.35,62.82-21.85s54.25-8.49,76.55-8.89c18-.31,35.94-.06,53.87.61,9.2.34,21.27.42,30.3,1.93,10.67,1.78,18.42,10.24,23.5,19.82,124.59,10.15,219.48,73,272.7,188.07,17.45,37.72,29.22,78.58,35.84,119.59,2.06,12.78,3.92,26.69,4.84,40.21l19.85,4.25v26.13c0,8.09-3.21,21.69-4.78,29.79-3.19,16.54-6.56,33.06-10,49.55q-7.83,38-15.93,75.86l-4.25,20L2882,1336.56c-40.76,80.53-108.24,135.56-194.75,163.68-32.26,10.48-74.06,18.8-110.87,19.94,1.57,12.3-8.13,20.56-19.6,21.23-2.33.14-4.68.13-7,.11-4.17,0-8.34-.18-12.5-.34a95.28,95.28,0,0,1,3.61,15.26c1.46,10.17-.34,26.28-1.26,36.64-1.64,18.38-3.74,36.77-6,55.09q-3.59,29.44-7.78,58.82c-1.2,8.27-3.1,26.22-6.09,33.72-5.33,13.32-21.87,16.6-34.44,18.66q-2.71.44-5.49.84v7.93c0,8.84-4.87,17.39-11,24.37l5.34,30.89c20.36.78,41.08,2.56,61,4.63,53.82,5.61,108.67,15.2,160.4,31.14,47.82,14.74,98.12,36.65,135.65,70.43,31.5,28.35,65,63.27,82.77,102.29,12.54,27.48,15.95,53.59,12.73,83.43-1.57,14.55-4.51,28.88-7.07,43.27-3.79,21.3-9,42.88-14,63.93-7.14,30.12-14.61,60.18-22.17,90.2q-20.57,81.72-42.05,163.27c-2.21,35.93-14.15,80.11-27.36,112.73-1.76,4.36-6.94,16.85-8,22.83,2.64,5,4.06,8.51,4.72,15,1.17,11.44-1.57,25.23-4.1,36.35-8,35.12-35.7,57.87-67.41,71.49a211.2,211.2,0,0,1-43.76,13.25c-16.29,21.2-32.34,42.74-48,64.39-9.23,12.77-18.38,25.66-27.12,38.78-5.06,7.61-11.44,16.95-15.38,25.32-1,8.22,6.48,37.86,8.38,45.84,6.86,28.74,13.7,57.32,17.58,86.66,8.48,64.23,2.56,135.38-62.6,167.56-32.75,16.19-67.56,19.77-102.74,9.86-22.56-6.36-43.45-17.75-62.12-31.78-36.34-27.31-78.8-78.62-92.37-122.76-7.79-25.3-26.33-55.27-45.31-80.25-13.22,42.91-32.72,92.77-55.22,123-25,33.62-145.73,74.15-186.36,88-61.35,20.85-124.16,40.23-186.66,57.65-12.53,14.87-25.64,29.58-38.9,43.73-9.82,10.49-20.1,21.13-30.94,30.57-9.75,8.49-23,19.33-36.91,15.17-8-2.4-19.71,6.47-26.09,10.4-17.78,10.94-47,1.87-65.16-4.59-13.65-4.85-32-12.19-45.16-19.85-8.4-.58-24.14,1.35-31.58,2.09-20.57,2-41.15,4.67-61.64,7.4q-48.4,6.47-96.68,13.94c-16.1,13.85-33.17,31.52-45.09,48.21-18.68,26.14-69.55,52.05-99.11,62.64-36.84,13.21-83.85,21.08-118.79-1.39-47.15-30.3-58.39-98.48-53.84-150.11,3-33.56,13-69.38,31.93-97.53,18.73-27.79,36.4-56.26,53.37-85.15,10-17,19.5-34.33,29.55-51.25,3.59-21.79,6.07-43.73,9.76-65.44,2.9-17.06,6.9-34.21,17-48.57,13-18.46,33.36-28.06,54.12-35.29a104.81,104.81,0,0,1,13.37-3.64c25.75-5.16,52.5-.57,77.15,7.49,20.45,6.69,39.93,15.88,59.07,25.64,7.34,3.74,14.64,7.59,22,11.25a112.31,112.31,0,0,0,11.66,5.27,103.66,103.66,0,0,0,4.08-11.91c3.07-10.39,5.89-20.57,10.49-30.45a87.18,87.18,0,0,1,7.55-13.21c19.94-28.5,70.2-25,103.24-17.78,3.48-6.82,7.19-16.6,8.72-20.69,6-16,14.63-29.25,29.41-38.31,10.3-6.32,21.77-9.47,33.12-13.29,12.88-4.32,24.15-9.27,35.61-16.69,21.19-13.7,46.29-24.19,69.81-33.23,18.75-7.21,37.72-13.76,56.61-20.58,11.49-4.14,25.11-8.79,36.18-14.47,3.53-8.09,4.46-32.39,4.61-39.74.55-26.17-1-52.91-3-79-3.17-42-7.77-84.59-13.51-126.44-65.71-62.26-98.88-143-101.68-233.29-.92-29.88,1.76-66.7,8.74-99.14l-3.41.42A406.43,406.43,0,0,1,1683.2,2172a329.19,329.19,0,0,1-73.1,21.49c-16,2.76-31.94,3.85-47.9,6.23-29.33,4.36-64.52,4-94.09,2.5-24.29-1.28-50.69-3.8-74.23-10-15.68-4.14-35.29-11.47-43.64-26.29l-4.25-17.63c-.47-13,2.49-25.63,10.36-35.81l22.63-16a36.47,36.47,0,0,1,4.83-1.24l5.27-1,5,2c62.28,24.68,127,33.46,191.29,20l-110.07-140.07.84-19.22.56-12.87,3.63-83c-5.76-.58-11.53-1.11-17.17-1.68-47-4.81-55.26-70-20.25-92.47,11.44-7.35,26.87-11,41.75-11.68l5.74-71.11,3.7-56.57q-7.69-1.2-15.4-2.35c-4.08-.6-8.93-1.44-13.8-2.17,0,.1-.07.21-.1.31-3.7,11.76-12.66,19.71-23.64,24.7-12.24,5.56-25.64,4.39-38,.08-49.67,52.82-106.95,97.77-172.18,130.15-45.17,22.43-90.5,37-139.79,46.85l-7,1.4-6.12-3.59c-26-15.19-22.24-44.22-15.2-68.33Zm1223-772.12q8.84,3.52,17.57,7.16c8.72,3.63,27.82,11.12,37,18.15a43.86,43.86,0,0,0,8.84-.08l-2-42.16c-6.63-2-13.33-3.87-19.91-5.43a21.6,21.6,0,0,1-6.42-2.63,244.82,244.82,0,0,0-35,25Zm84.06,1490.84c.51,30.22-2.86,57.88-10,87.81-2.41,10.12-5.06,20.15-7.72,30.18,18.66-15.06,36.69-31.08,39.68-38.65,1.86-7.65,3-13.88,2.38-21.7-.4-4.88-.84-9.54-.84-14.47a35.92,35.92,0,0,1,7-21.66c3.48-4.89,5.8-5.41,5.39-11.48s-1.14-19.68-2.48-31c-3.94,2.43-7.85,4.89-11.68,7.26-6.08,3.76-12.16,7.55-18.16,11.44l-3.59,2.3Z" transform="translate(-29.23 -29.62)"/><path class="cls-1" d="M1220.49,3050.73c-12.37,20.63-42.64,77-85.27,140.29s-41.27,184.31,16.5,221.45,171.93-27.51,192.56-56.4,52.27-55,52.27-55,193.93-30.26,204.94-23.38,75.65,37.13,93.53,26.13,27.5-16.51,41.26-12.38,90.78-88,90.78-88,332.85-92.15,368.61-140.29,61.9-151.3,61.9-151.3,55,60.52,71.51,114.16,116.92,189.81,231.08,133.42,13.75-260,27.5-290.22,97.66-138.92,97.66-138.92,89.43-11,103.18-71.52-15.14-19.26,8.24-77S2822.88,2473,2822.88,2473s67.4-255.83,78.4-317.72,27.51-112.79-82.52-211.81-360.36-101.79-360.36-101.79l-9.63-55.7s12.38-10.31,12.38-17.88v-24.76s38.51-2.75,41.26-9.62,22.7-155.42,20-174.68-15.13-38.16-15.13-38.16,50.89,3.09,50.54,1.37-1-21-1-21,225.93,12,315.33-187.39l35.76,11s30.25-141.67,30.25-151.3v-11l-19.24-4.13s-2.76-328.73-308.11-345.23c0,0-5.5-17.88-13.75-19.26s-116.92-6.88-151.3,5.5-63.27,22-63.27,22L2379.66,838s-56.4,20.63-60.52,27.51.69,73.58,12.38,76.33,33.7,9.63,33.7,9.63l3.44,72.21s-32.33,6.88-39.2-.69-96.29-41.25-152.68-61.89S1962.2,902,1908.55,904.75s-63.26,22.69-72.89,24.06-154.06-28.19-178.82-40.57-56.39-29.92-99-29.92c-49.74,0-55.79,15.09-135.48,4.47-20.63-2.75-46.77-10-57.77-3.1s-22,23.39-22,23.39-42.64-25.11-61.9-38.86-61.21-14.44-65.33-2.75,5.5,28.88,0,21.32-45.39-53-74.28-59.15-44.7,13.07-43.32,27.51a87.93,87.93,0,0,0,6.87,26.14s-35.07-21.32-57.08.68-9.63,46.08-9.63,46.08-44.7-15.82-52.26,26.82,28.19,101.78,109.34,121.72,143.73,21.32,143.73,21.32-59.14,55.71-41.94,101.79,75.64,47.45,107.28,30.94,72.9-56.39,77-50.89,26.82,15.82,46.08,7.57,24.76-22,39.2-9.63,38.51,18.57,52.27,18.57,80.48,28.19,78.41,38.51.69,26.13-11,28.19-42,16.51-42,16.51-14.43,72.9-19.94,72.9-37.82,8.25-61.89-1.38-45.39-15.13-60.52-1.37-15.82,24.07-35.76,28.88-28.2,24.07-55-5.5-74.27-88-111.41-90.78-50.2,26.14-50.2,37.83-19.94-20.63-49.52-15.13-39.19,39.2-32.32,47.45-37.81-15.82-55.69,19.94,27.52,87.34,35.78,92.84c0,0-48.83-12.38-59.84,33s46.77,77,76.34,77,112.79-4.82,107.29-4.13-48.82,64-41.94,88.72,55,64.65,73.59,44.7,83.9-82.53,103.84-86.65,55.71-11,60.52,2.75,43.32,44.71,66,34.39,10.32-27.51,15.82-28.2,64.65,8.94,64.65,8.94l-4.82,73.59-7.21,89.4s-29.57-4.47-48.83,7.91-18.23,55,12,58.11,34.73,3.78,34.73,3.78l-5.5,125.51,126.2,160.59,161.62-19.94s-68.77,204.94,85.28,345.24c0,0,35.77,253.08,5.51,269.58S1756,2764,1709.21,2794.25s-74.28,15.13-90.78,59.14-22,34.39-22,34.39-72.9-19.26-92.16,8.25-13.75,71.53-41.26,63.27-110-68.77-173.3-46.76-53.64,46.76-69.21,138.19Zm1130.37-586.54c3.2,72.21-15.92,108.19-29.58,174,0,0,83.22-58.46,88.72-81.15s2.06-26.14,2.06-40.58,13.76-13.75,12.38-34.38-4.12-61.21-11.69-57.08-61.89,37.13-61.89,39.2Z" transform="translate(-29.23 -29.62)"/><path class="cls-4" d="M2611.64,832.92l-.48,11.22L2605,985.08c73.05,9.49,135.75,78.13,123.78,154.74l110.38,10.32s-35.07-181.56-99-221.79c0,0,117.6,73.24,124.82,220.75l33,6.19s-36.63-323.4-286.28-322.37Z" transform="translate(-29.23 -29.62)"/><path class="cls-5" d="M2611.64,832.92l-.48,11.22-.11,2.47c22.5-1.17,82.09.48,137.57,42.9,70.15,53.64,121.31,170,126.27,197.24s9.08,47.86,1.64,53.64a12.36,12.36,0,0,0-4.85,10l26.24,4.91s-36.63-323.4-286.28-322.37Z" transform="translate(-29.23 -29.62)"/><path class="cls-6" d="M2609.62,879.12l-4.67,106c73.05,9.49,135.75,78.13,123.78,154.74l110.38,10.32s-35.07-181.56-99-221.79c0,0,3.42,2.13,9.11,6.38-41.13-32.42-91.36-54-139.57-55.61Z" transform="translate(-29.23 -29.62)"/><path class="cls-7" d="M2606.88,941.15,2605,985.08c73.05,9.49,135.75,78.13,123.78,154.74l110.38,10.32s-.29-1.48-.84-4.15c-17.15-4.29-53.87-21.75-82-92.68-33.29-83.95-126.85-107.6-149.39-112.16Z" transform="translate(-29.23 -29.62)"/><path class="cls-4" d="M2728.73,1154.26s180.52,20.28,180.52,26.48-12.72,106.94-21,109-186.36-93.19-186.36-93.19,33-17.53,26.82-42.29Z" transform="translate(-29.23 -29.62)"/><path class="cls-5" d="M2873,1172.71c21.27,3.3,36.21,6.25,36.21,8,0,6.19-12.72,106.94-21,109-1,.24-4.27-.86-9.33-3,1.32-3.26,3.4-8.39,5.5-13.4,3.43-8.25,6.87-20.29,6.52-29.23s4.82-47.11,3.44-57.77c-.63-4.89-10.68-9.78-21.36-13.65Z" transform="translate(-29.23 -29.62)"/><path class="cls-6" d="M2728.73,1154.26s10.68,1.2,26.82,3.1l.49,7.78s92.43,10.73,99.86,22.29,9.91,79.22,7.43,91.6l-.11.63c-51-24.13-161.31-83.11-161.31-83.11s33-17.53,26.82-42.29Z" transform="translate(-29.23 -29.62)"/><path class="cls-7" d="M2728.73,1154.26l16.07,1.84c.93,5.94,2.45,16.54,2,19.94-.67,4.81,56,37.83,56,55,0,7.74,1.49,14.51,2.46,19.66-49.75-25.52-103.31-54.17-103.31-54.17s33-17.53,26.82-42.29Z" transform="translate(-29.23 -29.62)"/><path class="cls-4" d="M2399.61,834.48s-61.89,404.37,140.29,462.14l-1.48-69.37a99,99,0,0,1-16.32-168,82.42,82.42,0,0,1,24.69-13.67A99.08,99.08,0,0,1,2675,1172.14l25.87,7.39s5.16-98-32-137.2S2550.21,1000,2510,1033.05l-8.25-14.44s29.91-23.73,47.45-25.79l4.12-100.06,14.44,1V985.6l20.63,2.06,2.06-164c0-8.28-95.66-29.11-149.57,0l3.08,312.57-6.18-3.1-19.6-303.28s-17.53,4.13-18.55,4.65Z" transform="translate(-29.23 -29.62)"/><path class="cls-5" d="M2399.61,834.48s-.37,2.42-1,6.89l20-4.67-.45-6.87s-17.53,4.13-18.55,4.65Zm277.11,338.17,24.1,6.88s5.16-98-32-137.2c-30.78-32.48-92-40.17-135-23.07,28.92-3.94,79.45-7,109.45,13.11,43.84,29.4,46.18,74.28,49.27,94.91s-2.06,41.26-2.06,41.26l-13.81,4.11Zm-99-186.05,10.61,1.06,2.06-164c0-8.28-95.66-29.11-149.57,0l.08,8.34c18-3,64.23-10.38,92-11.6,35.07-1.55,44.35,12.89,43.84,18-.46,4.59.72,122.26,1,148.17Z" transform="translate(-29.23 -29.62)"/><path class="cls-6" d="M2397.67,849.24c-8.76,73.16-36.86,396.21,142.23,447.38l-1.48-69.37a99,99,0,0,1-16.32-168,82.42,82.42,0,0,1,24.69-13.67A99.08,99.08,0,0,1,2678.92,1158c25.61-81.32-60.59-159.89-168.78-124.11l.73-1.58-.89.7-8.25-14.44s20.48-16.26,37.49-23c1.18-17.05,7.23-105.06,7.23-111,0-6.61,18.16,0,18.16,0s3.29-18.16-5-32.19-58.59-16.5-94.9-14.85c-11.34.51-18.81,1.83-23.72,3.4l2.91,295.29-.7-.35c-.79,3.39-11.5-.43-11.5-.43s-6.61-56.11-8.26-75.09-10.72-210.44-10.72-210.44l-15.09-.66Z" transform="translate(-29.23 -29.62)"/><path class="cls-7" d="M2391.76,922c-5.62,122.3,6,334.06,148.14,374.66l-1.48-69.37a99,99,0,0,1-16.32-168,82.42,82.42,0,0,1,24.69-13.67,96.69,96.69,0,0,1,13.33-4c-69-10.24-84.25,72.71-97.25,71.27-13.92-1.55-12.38-256.86-14.45-263.57-1.21-4-4.4-4.32-7.35-3.74l2.78,281.15c7.81,30.24,24.77,81.94-5.21,40.83-25.84-35.43-40.58-171.2-46.88-245.59Z" transform="translate(-29.23 -29.62)"/><path class="cls-4" d="M2581.87,1050.55a87.69,87.69,0,1,1-87.68,87.69,87.68,87.68,0,0,1,87.68-87.69Zm1.71,19.33a67.43,67.43,0,0,1,40,121.69,67.42,67.42,0,0,0-83.21-106,67.13,67.13,0,0,1,43.18-15.65Zm-1.71,33.28a35.08,35.08,0,1,1-35.08,35.08,35.09,35.09,0,0,1,35.08-35.08Z" transform="translate(-29.23 -29.62)"/><path class="cls-6" d="M2651.44,1191.61a87.7,87.7,0,0,1-146.1-10.55c-4.88-14-10.57-37.73-3.92-60,10.32-34.66,32.18-49.1,38.37-49.1,5.82,0,9.09,6.57,9.46,7.36a67.92,67.92,0,0,0-8.85,6.26q2.14-1.59,4.41-3c-9.24,7.36-28.93,27.56-20.28,61.18,0,0,1.23-42.08,21.86-54.88a154.09,154.09,0,0,0,4.45,33.05,35.08,35.08,0,0,0,31,51.44l1.12,0c12.41,7.82,29,11.23,51.29,6.32l.21.47a67.26,67.26,0,0,1-10.88,11.49A67.32,67.32,0,0,0,2635,1181a20.45,20.45,0,0,0,16.49,10.62Z" transform="translate(-29.23 -29.62)"/><path class="cls-6" d="M2457,1264.09s28.88,38.17,83.56,52.61l-2.06,187.75h-60.86L2423,1319.79c-1.93-6.53,6.19-36.39,34-55.7Z" transform="translate(-29.23 -29.62)"/><path class="cls-7" d="M2457,1264.09s28.88,38.17,83.56,52.61l-.82,75.08c-4.36-11.37-9.74-21-16.35-26.27-25.78-20.63-43.33-56.74-60.86-53.64-12.23,2.16-22,32.92-26.72,51.34L2423,1319.79c-1.93-6.53,6.19-36.39,34-55.7Z" transform="translate(-29.23 -29.62)"/><path class="cls-7" d="M2413.69,1213.55l-32,46.42,22.69,32,32-46.42s-19.59-24.75-22.69-32Z" transform="translate(-29.23 -29.62)"/><path class="cls-7" d="M2401,1166.29s-49.51,21.65-49.51,28.88,15.48,41.26,15.48,41.26l42.29-44.36-8.26-25.78Z" transform="translate(-29.23 -29.62)"/><path class="cls-7" d="M2394.84,1106.45s3.1,32,5.16,38.17-54.67,26.82-54.67,26.82L2334,1129.15s59.84-24.76,60.86-22.7Z" transform="translate(-29.23 -29.62)"/><polygon class="cls-7" points="2302.68 1025.25 2304.75 1076.83 2357.36 1061.36 2352.2 1021.13 2302.68 1025.25 2302.68 1025.25"/><path class="cls-4" d="M2304.58,1060.26s-12.38,123.79,16.5,167.12,76.34,94.9,76.34,94.9l34,149.58s-126.89-46.43-147.52-32-51.58,214.57-20.64,278.52,138.24,47.45,136.17,64-4.12,57.77-4.12,57.77S2187,1858.7,2048.74,1933c0,0,173.3-43.33,330.1-53.64s288.84,24.76,288.84,24.76-179.5,22.69-284.72,80.46c0,0,187.75-41.26,290.91-37.14s169.17,57.76,179.49,113.47,25.79,98-10.31,145.45-119.67,111.42-93.88,105.23c5.34-1.28,12.24-4.16,19.76-7.72,28.8-13.59,66.86-37.1,62.77-19.11-5.16,22.7-36.11,148.55-43.33,159.9s-74.27-8.26-150.6-10.32-165.06,26.82-165.06,26.82-20.63-47.45-15.47-59.83,175.37-162,188.78-209.41-88.71,66-150.6,117.6-101.09,78.4-231.07,119.66-226.95,66-332.17,6.19S1806.33,2284,1822.83,2185s71.17-168.49,115.53-196.34,45.39-27.85,45.39-27.85c-79.21,4.06-121,73.8-168.83,134.45,0,0-20-117.94-3.45-278.87s92.84-171.24,132-222.82,59.83-103.16,59.83-103.16S1894,1597.71,1877.49,1593.58s-12.38-156.8,2.06-179.49,76.34-4.13,76.34-4.13-49.51-30.94-70.15-74.27-92.85-68.08-119.67-113.47,117.6-76.34,136.17-117.6l18.57-41.27s-148.55,138.23-216.63,125.86-123.79-2.06-111.41-31,76.33-94.9,64-88.72-109.35,76.34-150.62,72.22-72.21-86.66-80.46-130-37.13-134.11-2.06-134.11,61.21,26.13,106.59,3.44,125.17,33,125.17,33l-121,14.44s240-1.47,293.66,42c8.24,6.67-72.39,35.6-68,40.11,23.94,24.86,57-16.09,79.72-31.17,26.82-17.83,60.48-44.56,89.41-46.09,68.15-3.58,173.94,50.72,253.36,63.9,38.72,46.15,68.49,130,68.49,130s-12.38-101.09-8.25-111.41,59.83,41.27,61.92,44.36Z" transform="translate(-29.23 -29.62)"/><path class="cls-5" d="M2795.83,2290.39c20.87-10.48,38.74-18.28,35.87-5.66-2.92,12.85-14.11,58.77-24.58,98.26-4.06-17.26-1.78-52.94,6.85-77.21,5.17-14.54-5.43-16.94-18.14-15.39Z" transform="translate(-29.23 -29.62)"/><path class="cls-5" d="M2180.44,1905.25c58.83-10.7,130.18-21.44,198.4-25.92,156.8-10.32,288.84,24.76,288.84,24.76a1276.89,1276.89,0,0,0-138.47,27c15.46-5.37,28.72-9.36,33-10.08,12.38-2.07,34.05-13.42,24.76-24.77-8-9.82-319.22,4.33-406.56,9Zm296.65,61.3c61.95-10.52,141.51-21.34,196.78-19.14,103.16,4.13,169.17,57.76,179.49,113.47s25.79,98-10.31,145.45a361.16,361.16,0,0,1-27.71,31.42c11.84-25.72,27.38-64.75,25.44-88.73-3.1-38.17-15.48-2.06-60.87-38.17s-9.28-90.77-14.43-121.72c-4.49-26.87-229.73-18-288.39-22.58Z" transform="translate(-29.23 -29.62)"/><path class="cls-6" d="M2192.93,1094.76s-39.2,76.34-49.52,142.36-53.63,412.62-82.52,464.2-72.21,90.78-72.21,90.78,153.7-687,163-697.34,42.3-26.82,42.3-26.82,0,25.79-1,26.82Z" transform="translate(-29.23 -29.62)"/><path class="cls-6" d="M2800.25,2408.27c-5.24,18.68-9.67,32.89-11.88,36.36-7.22,11.34-74.27-8.26-150.6-10.32s-165.06,26.82-165.06,26.82-20.63-47.45-15.47-59.83,175.37-162,188.78-209.41-88.71,66-150.6,117.6-101.09,78.4-231.07,119.66-226.95,66-332.17,6.19S1806.33,2284,1822.83,2185s71.17-168.49,115.53-196.34c22.47-14.11,33.81-21.06,39.55-24.5,30-12.71,60.07-23,38.51-2.34-38,36.31-199.71,222.83-100.68,270.69s257.48-19.81,178.26,69.32,348.25-46.22,442.33-105.63,191.47-100.69,160.1-1.65-8.25,166.7,46.22,189.8c16.48,7,37,15.34,57.6,23.91Z" transform="translate(-29.23 -29.62)"/><path class="cls-7" d="M2581.19,2437.46c-57.75,7.16-108.48,23.67-108.48,23.67s-20.63-47.45-15.47-59.83,175.37-162,188.78-209.41-88.71,66-150.6,117.6-101.09,78.4-231.07,119.66-226.95,66-332.17,6.19S1806.33,2284,1822.83,2185c13.79-82.72,54.21-144.81,93-179.24-36.31,50.9-127.76,195.72-60.57,280.38,82.53,104,143.59,39.61,128.74,97.38s265.74,28.07,378-26.4,285.54-234.38,293.8-184.86-146.9,188.16-125.45,232.72c8.09,16.8,28.14,26.56,50.87,32.47Z" transform="translate(-29.23 -29.62)"/><path class="cls-8" d="M2496.18,2454.35c-14.58,3.89-23.47,6.78-23.47,6.78s-20.63-47.45-15.47-59.83c2.8-6.72,54.27-53.9,102.88-103.22-18.93,29.31-42.27,66.32-57.57,96.24-14.32,28-12.57,47.32-6.37,60Zm8.12-152.43q-4.56,4-8.88,7.57c-61.9,51.58-101.09,78.4-231.07,119.66s-226.95,66-332.17,6.19c-96.55-54.89-121.87-136.43-112.64-226,3,27.54,8.54,59.12,18.68,90.08,26.13,79.78,162.3,148.55,302.6,148.55,94.59,0,261.67-86.9,363.48-146Zm-602.68-282.33c4.72-5,9.48-9.62,14.21-13.82l-2.13,3-12.08,10.81Z" transform="translate(-29.23 -29.62)"/><path class="cls-5" d="M1763.85,946.54c28.08,5.87,51.37,13.65,64.12,24,4.46,3.61-17.14,13.75-37.2,23,10.11-6.8,21.93-16.53,12.7-28-5.74-7.12-22.06-13.69-39.62-19Zm-2.83,65.17c23.85,22.55,56.29-17.39,78.63-32.25,26.82-17.83,60.48-44.56,89.41-46.09,1.81-.09,3.65-.14,5.51-.15l-.08,0c-14.45,2.75-23.38,12.38-44.7,24.07s-96.29,69.81-114.17,67.06c-14.72-2.27-16.39-9.43-14.6-12.66Z" transform="translate(-29.23 -29.62)"/><path class="cls-6" d="M1536.11,928.35l-1.8.21s77.94-.47,154.92,7.15c-21.32,1-67.8,1-80.37,1-16.16,0-87-5.84-76.34-7.91.76-.14,2-.29,3.59-.42Z" transform="translate(-29.23 -29.62)"/><path class="cls-5" d="M1520.71,885.26a99.48,99.48,0,0,0,9.47-4.15c45.39-22.7,125.17,33,125.17,33l-13.06,1.56c-9.45-2.9-21.79-8.57-34.81-19.23-15.37-12.57-59.71-12.53-86.77-11.19Z" transform="translate(-29.23 -29.62)"/><path class="cls-6" d="M1977.17,1961.32c-75,7.48-115.71,75-162.25,134,0,0-20-117.94-3.45-278.87s92.84-171.24,132-222.82,59.83-103.16,59.83-103.16S1894,1597.71,1877.49,1593.58s-12.38-156.8,2.06-179.49,76.34-4.13,76.34-4.13-49.51-30.94-70.15-74.27-92.85-68.08-119.67-113.47,117.6-76.34,136.17-117.6l18.57-41.27s-148.55,138.23-216.63,125.86-123.79-2.06-111.41-31,76.33-94.9,64-88.72-109.35,76.34-150.62,72.22-72.21-86.66-80.46-130-37.13-134.11-2.06-134.11c21.14,0,39,9.49,59.85,12.07-1,9.17-17,18.19-33,31.53-24.76,20.63,24.76,74.27,70.14,132s166.08-42.29,168.15-36.1-19.6,70.14,6.18,102.12,196-71.17,257.91-110.37,10.31,14.44-18.57,82.53,12.38,70.14,76.34,41.26,35.07-70.15,53.64-18.57,22.69,121.72,28.88,218.69-43.32,202.19-59.84,352.8-90.77,222.82-99,251.7,57.77,15.47,57.77,15.47-5.72,3.16-14.9,8.49Z" transform="translate(-29.23 -29.62)"/><path class="cls-7" d="M1934.42,1973.19c-49.45,23.37-82.66,75.41-119.5,122.08,0,0-20-117.94-3.45-278.87s92.84-171.24,132-222.82,59.83-103.16,59.83-103.16S1894,1597.71,1877.49,1593.58s-12.38-156.8,2.06-179.49,76.34-4.13,76.34-4.13-49.51-30.94-70.15-74.27-92.85-68.08-119.67-113.47,117.6-76.34,136.17-117.6l18.57-41.27s-148.55,138.23-216.63,125.86-123.79-2.06-111.41-31,76.33-94.9,64-88.72-109.35,76.34-150.62,72.22c-39.82-4-70-81-79.51-125.32,18.11,39.62,45.14,80.78,81.15,88.44,72.72,15.48,152.16-62.41,155.77-48.48s-33,100.58,28.88,102.13,226.95-119.67,231.08-105.23-11.87,63.45-30.44,91.82-23.72,73.75,45.4,133.59,121.73,109.34,86.66,128.94-115.54,64-97,71.18,129-54.67,135.15-35.07-117.58,391-144.4,454.93c-24.25,57.82-1.28,68.43,15.55,74.5Z" transform="translate(-29.23 -29.62)"/><path class="cls-8" d="M1934.42,1973.19c-49.45,23.37-82.66,75.41-119.5,122.08,0,0-20-117.94-3.45-278.87s92.84-171.24,132-222.82,59.83-103.16,59.83-103.16S1894,1597.71,1877.49,1593.58s-12.38-156.8,2.06-179.49,76.34-4.13,76.34-4.13-49.51-30.94-70.15-74.27-92.85-68.08-119.67-113.47c-24.77-41.92,96.49-71.51,129.82-108.3-1.05,2.84-2.16,5.8-3.31,8.83-9.63,25.45-88.71,59.15-55.7,108s120.35,165.74,128.6,180.87-21.32,6.87-45.39,6.87-22,67.4-26.82,99,92.15-28.88,114.16-40.57,2.06,29.57-26.82,86-103.86,177.44-102.48,232.45,49.51-33,67.4-67.39c12.89-24.8,45.09-63.9,59-76.56-5.31,16.37-10.72,32.89-16.13,49.26-28.32,64.35-74,168.28-80,184.09-2.38,6.36.29,16.51,5.29,27.72-15.17,45.82,5.35,55.18,20.74,60.73Zm-78.15-855.87c-48.64,37.26-113.37,78.93-152.09,71.89-68.09-12.38-123.79-2.06-111.41-31,6.23-14.55,25.55-38.5,41.61-57.92-3.37,8.14-13.75,23.86-19,36.85-8.25,20.63,40.58,51.58,111.41,40.58,41.87-6.5,93.1-36.08,129.43-60.45Zm-271.71-3.46c-28.84,16-59.51,29.79-78.45,27.9-17.07-1.72-32.38-16.85-45-37.08,7.34,5.73,17.58,14.07,27.82,23.58,12,11.18,58.8-1.58,95.67-14.4Z" transform="translate(-29.23 -29.62)"/><path class="cls-6" d="M2304.58,1060.26s-12.38,123.79,16.5,167.12,76.34,94.9,76.34,94.9l34,149.58s-126.89-46.43-147.52-32-51.58,214.57-20.64,278.52,138.24,47.45,136.17,64-4.12,57.77-4.12,57.77S2187,1858.7,2048.74,1933c0,0,9.52-2.39,26.14-6.16-25.41,8.74-40.27,13.89-40.27,10.76,0-6.88,13.76-72.9,107.28-94.91s151.3-12.37,93.53-57.76,19.26-272.33-13.75-354.86-77-140.29-33-112.78,90.78,104.53,90.78,41.26-30.26-88-49.52-145.79-46.76-82.53-55-115.54-122.41-115.53-155.43-137.54c-16.47-11-35.34-17.51-50.45-23.18,65.32,11.49,148.23,50,213.4,60.8,38.72,46.15,68.49,130,68.49,130s-12.38-101.09-8.25-111.41,59.83,41.27,61.92,44.36Z" transform="translate(-29.23 -29.62)"/><path class="cls-7" d="M2304.58,1060.26s-12.38,123.79,16.5,167.12,76.34,94.9,76.34,94.9l34,149.58s-126.89-46.43-147.52-32c-4.83,3.37-10.22,16.91-15.25,36.49-1.14-16.27-1.86-28.68-1.86-34.68,0-31.36,56.12-24.76,79.22-21.45s19.81,6.6,29.71-9.91-39.62-115.54-66-165-21.46-80.87-46.22-115.54a189.48,189.48,0,0,1-15.19-24.68c-3.37-30.39-8.56-81.95-5.67-89.16,4.13-10.31,59.83,41.27,61.92,44.36Zm17.63,702.65c38.31,11.63,78.53,9.28,77.26,19.45-2.07,16.5-4.12,57.77-4.12,57.77s-171.22,15.25-306.21,73.43c5.49-4.59,13.1-11,20.89-18,14.85-13.21,94.08-38,155.15-56.12s105.64-44.57,75.93-62.72a153.77,153.77,0,0,1-18.9-13.84Z" transform="translate(-29.23 -29.62)"/><path class="cls-8" d="M2294.23,1469.79c-20.63,7.22-17.53,45.39-18.57,94.91s-4.13,149.58,19.59,167.11,125.86,37.14,125.86,21.66,6.19-16.5-1-20.63-95.94-30.94-102.13-54.67-25.78-119.66-19.59-157.83,27.85-54.68,27.85-54.68-27.86,0-32,4.13Z" transform="translate(-29.23 -29.62)"/><path class="cls-4" d="M2338.58,1472.88c8.26-1,76.34,16.51,103.16,27.86s40.23,31,43.33,48.48c.9,5.17,1.73,21.45,1.94,42.09-3-3.85-6.94-6.17-11.21-6.17-9.58,0-17.34,11.64-17.34,26s7.76,26,17.34,26c4.08,0,7.84-2.13,10.8-5.67-1.3,42-5.6,85.12-16,90-19.61,9.28-126.89-40.23-135.14-53.65s-23.72-134.1-19.6-152.67,22.69-44.36,22.69-42.3Zm42.31,88.32c9.58,0,17.34,11.64,17.34,26s-7.76,26-17.34,26-17.32-11.64-17.32-26,7.75-26,17.32-26Z" transform="translate(-29.23 -29.62)"/><path class="cls-5" d="M2469.82,1519.84c8.62,9.25,13.53,19.64,15.25,29.38.9,5.17,1.73,21.45,1.94,42.09-3-3.85-6.94-6.17-11.21-6.17a12.63,12.63,0,0,0-1.63.11,41.31,41.31,0,0,1,.81-5.89c2.06-8.93-3.31-47-5.16-59.52Zm6.24,117.28c4-.09,7.64-2.2,10.54-5.66-1.3,42-5.6,85.12-16,90-2.64,1.25-6.89,1.42-12.27.77l.11-.14c14.66-18,17.48-63.4,17.59-85Z" transform="translate(-29.23 -29.62)"/><path class="cls-6" d="M2338.58,1472.88a31.51,31.51,0,0,1,6.87.62c-18.59,30.88-15.55,143.11,4.08,171.06,21.46,30.53,30.54,39.61,50.34,51.16,16,9.32,40.53,15.42,34.72,20.89-38.8-12.18-93.31-39.35-99.1-48.76-8.25-13.41-23.72-134.1-19.6-152.67s22.69-44.36,22.69-42.3Z" transform="translate(-29.23 -29.62)"/><path class="cls-6" d="M1384.36,878.71s-28.88,52.61-34,89.75,33,136.17,41.27,144.42,28.88,21.66,39.2,20.63,20.62-4.12,19.59-13.41-54.67-147.52-54.67-173.3,2.06-52.61,2.06-52.61-9.29,9.28-10.57,20.11-2.58,18.57-2.58,18.57-6.71-16.25-4.64-26.31,11.34-21.14,10.83-22.95-5.67-4.39-6.45-4.9Z" transform="translate(-29.23 -29.62)"/><path class="cls-7" d="M1355.73,945.26a151.67,151.67,0,0,0-5.41,23.2c-5.16,37.13,33,136.17,41.27,144.42s28.88,21.66,39.2,20.63,20.62-4.12,19.59-13.41c-.59-5.33-18.5-53.12-33.66-97.76,3.28,25.61,21.55,79.59,4.24,67.47-20.63-14.44-26.82-109.35-31-79.43s14.44,103.16-3.1,77.37-41.26-102.13-33-133.08a54.69,54.69,0,0,0,1.82-9.41Z" transform="translate(-29.23 -29.62)"/><path class="cls-7" d="M1394.5,1115.56c9.47,8.18,27,18.88,36.29,18,10.31-1,20.62-4.12,19.59-13.41-.17-1.56-1.84-6.77-4.48-14.48-4.69,6.1-13.9,12.25-31.28,7.51-9.33-2.55-15.65-.84-20.12,2.43Z" transform="translate(-29.23 -29.62)"/><path class="cls-6" d="M2444,2504.71s68.09-30.46,179.5-32.81,163,4.69,154.73,25.78-10.31,42.18-20.63,53.89-94.9-30.46-72.21-4.68,74.27,25.78,70.15,60.92,4.12,77.33-61.9,84.36-206.31-91.39-224.88-112.48-26.82-72.64-24.76-75Z" transform="translate(-29.23 -29.62)"/><path class="cls-5" d="M2753.45,2477.41c20.23,4.22,28.5,10.84,24.81,20.27-8.25,21.09-10.31,42.18-20.63,53.89s-94.9-30.46-72.21-4.68,74.27,25.78,70.15,60.92c-3.57,30.45,2.12,66.16-39.17,79.74,1.39-12.17,20.9-36.66,11.61-77.8-9.63-42.64-58.46-50.21-61.21-70.84s56.4-6.88,79.78-17.88c17.4-8.19,11.19-32,6.87-43.62Z" transform="translate(-29.23 -29.62)"/><path class="cls-7" d="M2444,2504.71s68.09-30.47,179.5-32.81q39.67-.83,69.23,0c-52.85,9.06-189.45,23.67-164.9,46.17,29.71,27.24,68.49,43.74,31.36,42.92-32.81-.73-37.26,44.9-11.71,76-38.7-23.69-70.53-48-78.72-57.31-18.56-21.09-26.82-72.64-24.76-75Zm236.36,187.58c-24.7-1.82-56.16-13.94-87.32-29.72,31.37,7.25,69,8.21,87.32,29.72Z" transform="translate(-29.23 -29.62)"/><path class="cls-8" d="M2444,2504.71s21-9.41,58.87-18.17c-9.49,8.12-21.24,20.29-27.87,35-8.18,18.17,3.43,52.83,12.27,74.27-9-7-15.42-12.62-18.51-16.13-18.56-21.09-26.82-72.64-24.76-75Z" transform="translate(-29.23 -29.62)"/><path class="cls-4" d="M1362.91,1124.26s-49,62.41-96.44,64.47-47.45-19.6-37.14-48.48,65-73.24,65-73.24-90.78-18.57-180.53-38.17-115.53-66-103.15-88.72,30.94-17.53,59.83,1,110.37,20.64,103.15,19.6-82.52-22.69-104.18-37.13-22.69-43.33-3.1-49.52,36.11,8.26,74.27,26.82,62.93,16.51,62.93,16.51-78.4-23.73-86.66-66,21.67-36.07,37.14-21.66,88.71,81.87,109.35,85.61-15.47-10.31-21.67-37.13,17-31.46,35.59-7.73,61.38,39.71,61.38,39.71-16.5,126.88,24.24,214Z" transform="translate(-29.23 -29.62)"/><path class="cls-5" d="M1008,948a23.77,23.77,0,0,1,2.6-7.87c10.78-19.76,26.25-18.4,49.15-5.46,3.16,10.54-9.18,2.35-25.62-.95-10.7-2.14-20.54,7.35-26.13,14.28Z" transform="translate(-29.23 -29.62)"/><path class="cls-5" d="M1251.86,855.18c7.21-.58,16.82,4.31,25.43,15.32,6.27,8,15.31,15.14,24.53,21.07a69.15,69.15,0,0,1-21.31-8.6c-10.25-6.23-25.36-21.53-28.65-27.79Z" transform="translate(-29.23 -29.62)"/><path class="cls-5" d="M1135.4,819.5c6.5,1.44,13.39,5.37,18.62,10.25,11.67,10.87,56.24,52,86.28,73.07.94,2.72,1,4.52-.24,4.9-6.6,2.06-66-52.82-83.35-62.31-14.37-7.86-21.08-18.85-21.31-25.91Z" transform="translate(-29.23 -29.62)"/><path class="cls-5" d="M1066.64,874c19.46-6,36,8.44,74,26.91a184.61,184.61,0,0,0,30.17,11.68c.68,1,.72,1.7,0,2.14-8.67,4.94-63.55-21-75.1-28.47-8.77-5.64-22.76-10.32-29-12.26Z" transform="translate(-29.23 -29.62)"/><path class="cls-6" d="M1260.2,914.46a18.74,18.74,0,0,0,3.17.9c20.63,3.75-15.47-10.31-21.67-37.13-2.58-11.22,0-18.55,5.17-21.55.33,10.84,4.57,27.46,12.59,29.18,11.56,2.47,16.1,3.3,13.62,9.49s28.06,18.57,24.76,26c-2.77,6.22-21.45,2.31-37.64-6.88Z" transform="translate(-29.23 -29.62)"/><path class="cls-6" d="M1188.42,916.46a73.86,73.86,0,0,0,15.12,1s-78.4-23.73-86.66-66c-2.57-13.18-1.43-21.64,1.81-26.62,2-1.77,4-3.39,5.65-4.77a14.7,14.7,0,0,1,3.82-1c-3.08,8.5-6.66,29.87,5,45.41,14.86,19.8,49.93,2.48,45,13.2s30.95,32.6,40.44,36.32,15.68,8.66,4.54,10.31c-6.45,1-20.1-2.93-34.69-7.81Z" transform="translate(-29.23 -29.62)"/><path class="cls-6" d="M1362.91,1124.26s-49,62.41-96.44,64.47-47.45-19.6-37.14-48.48,65-73.24,65-73.24-90.78-18.57-180.53-38.17c-68.59-15-99.82-45.63-105.21-69.38a29,29,0,0,1,3.88,3.74c23,26.28,57.85,5.16,61-20.27,31.13,16.93,107.12,18.82,100.13,17.82-7.22-1-82.52-22.69-104.18-37.13-18.9-12.6-22.09-36.18-9.6-46.1,7.39,61.87,129.88,65.79,125.52,83.2-2.48,9.91-113.89,1.66-97.38,31.37s196.41,48.69,217,42.08,20.18-31.48,21.46-60.24,5.79-32.31,10-38.93c-2.56,41.26-3.25,125.79,26.42,189.26Z" transform="translate(-29.23 -29.62)"/><path class="cls-7" d="M1362.91,1124.26s-49,62.41-96.44,64.47-47.45-19.6-37.14-48.48,65-73.24,65-73.24-90.78-18.57-180.53-38.17c-38.48-8.41-65.2-21.74-82.2-36,9.42-2.34,23.1.56,41.73,12.41,34,21.66,210.44,48.48,228,53.64s-9.28,24.76-32,48.48,17.54,50.55,50.55,29.92,17.54-49.51,11.35-82.53c-3.7-19.74.34-52.74,4.19-76.1.53,43.49,6.17,100,27.5,145.63Z" transform="translate(-29.23 -29.62)"/><path class="cls-8" d="M1362.91,1124.26s-49,62.41-96.44,64.47c-43.47,1.89-47.12-16.13-39.5-41.37,9.63,9.27,22.78,25.2,59,19.41,37.17-6,62.9-33.32,74.39-48.15q1.21,2.85,2.52,5.64Z" transform="translate(-29.23 -29.62)"/><path class="cls-6" d="M2442.45,2589.1s115.54,94.9,163,115.54,57.77-2.07,41.27,20.63-72.22,92.84-86.66,97-101.09-33-121.73-61.89c0,0,33,80.46,107.29,99,0,0,43.32,132,39.2,196s-39.2,111.41-130,64-109.34-165.06-175.36-241.39c-155.23-179.48,105.29-177.56,163-288.84Z" transform="translate(-29.23 -29.62)"/><path class="cls-7" d="M2442.45,2589.1s115.54,94.9,163,115.54,57.77-2.07,41.27,20.63c-12.13,16.67-45.4,58.94-67.95,81.85-17.27,1.12-44.57-4.11-80.61-23.33-49.52-26.4-95.73-64.37-95.73-64.37s16.1,20.9,37.85,45.21c8,16.9,41.4,78.76,105.34,94.74,0,0,13.56,41.33,24.78,88.94-6.66-14.43-12.45-37.43-79.66-37.43s-81.66,56.88-67.68,110.58-187.2-209.73-169.11-291.45c47.42-48.4,154.08-74.5,188.51-140.91Z" transform="translate(-29.23 -29.62)"/><path class="cls-8" d="M2442.45,2589.1s115.54,94.9,163,115.54,57.77-2.07,41.27,20.63c-3.56,4.89-8.93,12-15.32,20.13-44.86-9.6-102.06-32.43-129.88-58.4-41.26-38.51-116.92-27.5-100.41,1.38s20.63,6.88-34.38,12.38-104.54,50.89-86.66,89.4c14.78,31.82,30.48,67.38,13,64.06-26.72-49.29-45.18-96.9-39.13-124.21,47.42-48.4,154.08-74.5,188.51-140.91Z" transform="translate(-29.23 -29.62)"/><path class="cls-6" d="M1909.13,2496.25s14.44,134.1,24.75,218.7-20.63,160.92-24.75,148.54,4.12-88.71-10.32-97-181.55,26.82-175.36,74.28,55.7,303.27,86.65,317.72,338.36-57.77,379.62-144.42,39.2-175.37,30.94-187.75-51.57-68.08,4.13-125.85,57.76-70.15,64-97,35.06-183.62,20.63-158.86-191.87,68.08-400.25,51.57Z" transform="translate(-29.23 -29.62)"/><path class="cls-9" d="M2090.93,3088.3c47.7-21.92,86-47.37,98.79-74.2,41.26-86.65,39.2-175.37,30.94-187.75s-51.57-68.08,4.13-125.85,57.76-70.15,64-97c1.22-5.3,3.33-15.65,5.8-28.66-29.51,17.19-84.86,59-140.22,117-71,74.27-148.54,191.46-85.83,203s-46.21,95.73-34.66,143.6c6.82,28.2,29.68,43.8,57.09,49.83Z" transform="translate(-29.23 -29.62)"/><path class="cls-7" d="M1909.13,2496.25s14.44,134.1,24.75,218.7-20.63,160.92-24.75,148.54,4.12-88.71-10.32-97-181.55,26.82-175.36,74.28,55.7,303.27,86.65,317.72c18.06,8.43,130.25-12.66,228.77-48.9a268,268,0,0,0-40.39-8.35c-194.76-26.41-175-148.55-132-194.77s23.1,82.53,69.32,29.72,13.2-161.75,99-241c57.9-53.46,180.42-108.41,263.13-138.5,9.86-54.1,21.81-129.83,11.45-112.06-14.44,24.75-191.87,68.08-400.25,51.57Z" transform="translate(-29.23 -29.62)"/><path class="cls-8" d="M1909.13,2496.25s14.44,134.1,24.75,218.7-20.63,160.92-24.75,148.54,4.12-88.71-10.32-97-181.55,26.82-175.36,74.28c3.28,25.21,18.81,109.28,37.28,184.68-2-17.66-3.38-36.62-3.69-56.21-1.38-88,100.41-228.32,114.16-169.18s26.13,104.54,46.77,79.78,32.32-152,48.82-240c14.44-77,269.88-130.85,341.93-147.74,4.93-33.48,7.09-58.47.66-47.44-14.44,24.75-191.87,68.08-400.25,51.57Z" transform="translate(-29.23 -29.62)"/><path class="cls-6" d="M1676,2865.55s-20.63,144.42,18.57,198.06,109.35,101.1,86.65,134.1-55.7,76.34-74.27,55.71-10.31,6.19-31,14.44-70.14,0-107.28-80.46-37.14-233.13-10.31-239.32,47.45,22.69,49.51-4.13,43.32-94.91,68.08-78.4Z" transform="translate(-29.23 -29.62)"/><path class="cls-7" d="M1676,2865.55s-20.63,144.42,18.57,198.06,109.35,101.1,86.65,134.1c-4.44,6.46-9.28,13.31-14.32,20-48.1-26.9-80.9-59.12-95.18-114.79-16.5-64.37-61.06-84.18-47.86-21.45s44.56,122.13,13.2,102.32-66-61.06-57.77,14.86c.43,3.92.81,7.63,1.15,11.19a249,249,0,0,1-11.72-22.44c-37.14-80.46-37.14-233.13-10.31-239.32s47.45,22.69,49.51-4.13,43.32-94.91,68.08-78.4Z" transform="translate(-29.23 -29.62)"/><path class="cls-8" d="M1676,2865.55s-20.63,144.42,18.57,198.06c8.75,12,19,23.64,29.49,34.89-34.17-2.51-77-96.79-77-138.86,0-42.63-26.13,1.38-37.14,56.39s-11-28.88-39.89-33c-17.75-2.54-20.43,72.31-22.1,135.19-14.71-77.49-9.74-165.48,10.49-170.14,26.82-6.2,47.45,22.69,49.51-4.13s43.32-94.91,68.08-78.4Z" transform="translate(-29.23 -29.62)"/><path class="cls-6" d="M1496.47,3001.72s14.44,138.23,30.94,175.36,16.51,80.46,16.51,80.46-119.66,20.63-130,8.26-8.25-97,12.38-134.11c0,0-66,64-55.71,148.55,0,0-63.95,74.28-101.09,92.84s-103.16,53.64-136.17-51.57,111.41-222.83,123.79-280.6,24.76-90.77,49.52-94.9,111.41,39.2,140.29,43.33,47.46,8.25,49.52,12.38Z" transform="translate(-29.23 -29.62)"/><path class="cls-7" d="M1496.47,3001.72s14.44,138.23,30.94,175.36,16.51,80.46,16.51,80.46-119.66,20.63-130,8.26-8.25-97,12.38-134.11c0,0-66,64-55.71,148.55,0,0-7.9,9.17-19.76,21.88-.5-14-10.31-30.63-42.28-49-77.58-44.56-113.89,69.32-127.09,38s36.31-156.8,84.17-199.72c37.08-33.24,55.34-110.05,61.68-143,35.71,8.93,96.37,37.64,119.62,41,28.89,4.12,47.46,8.25,49.52,12.38Z" transform="translate(-29.23 -29.62)"/><path class="cls-8" d="M1496.47,3001.72s1.35,13,3.71,32.07l.14,1.12.11.93.26,2.07v0l.26,2.13.12.94.16,1.23.25,1.93,0,.29.29,2.24.1.72.2,1.56.23,1.76.07.56.31,2.34.07.48.25,1.9.21,1.54.11.86.33,2.43,0,.21.31,2.24.18,1.3.16,1.17.34,2.42v.08l.36,2.51.15,1,.21,1.49.74,5.1.11.76.26,1.81.29,1.9.1.67.39,2.59.07.46.32,2.13.25,1.61.15,1,.41,2.6,0,.16.59,3.74.21,1.29.39,2.45,0,.13.42,2.59.17,1,.26,1.57.36,2.14.07.43.45,2.56.12.7v0q.6,3.45,1.22,6.84l.07.4.39,2.1.28,1.49.64,3.43,0,.11.45,2.32.23,1.17.24,1.24.45,2.21,0,.16.48,2.35.18.86.3,1.46.4,1.86.09.42.49,2.25.12.57.11.47.48,2.13.13.56.15.65.5,2.13.07.3.15.62.47,1.94.18.74.65,2.55v0l.5,1.91.1.38.3,1.1.11.43.47,1.68.05.17.63,2.19.16.55c.45,1.52.91,3,1.37,4.37l.14.41.59,1.73.13.34.65,1.81.06.16,0,.07.63,1.6.2.48c.23.56.45,1.1.68,1.62l.69,1.57.08.18.09.22.5,1.18.14.35,0,0,.49,1.19.15.4.06.13.11.27.15.39.16.4.15.4.12.3,0,.1.15.39.31.8.15.4,0,.08.11.32.15.39.14.41.24.66,0,.13.14.4.14.4.14.4.14.4,0,0v0l.52,1.53.07.22.06.18.14.4.12.4.26.8h0l.13.39.13.41.12.4.13.4.06.17.06.23.12.39.13.4.12.4.11.36v0l.12.4.11.4.12.39.12.4,0,.14.07.26.11.4.12.39.11.41.09.3,0,.09.11.4.11.39.11.4.21.79.11.4a241.29,241.29,0,0,1,7.68,55s-119.66,20.63-130,8.26-8.25-97,12.38-134.11c0,0-66,64-55.71,148.55,0,0-5.5,6.39-14.22,15.9A301.11,301.11,0,0,1,1359,3258c8.26-64,53.65-149.58,84.59-148.55s1,29.92-8.25,55.71,15.47,46.43,43.32,38.17c19.83-5.87,19.79-54.1,10.68-104.11-1.9-7-3.49-13.75-4.64-19.88-9.63-50.89-30.26-55-81.15-66s-52.27-12.38-83.91,22c-21.54,23.42-73.05,88.92-105.47,130.51,15.08-30.24,33.39-58.22,51.47-74.44,37.08-33.24,55.34-110.05,61.68-143,35.71,8.93,96.37,37.64,119.62,41,28.89,4.12,47.46,8.25,49.52,12.38Z" transform="translate(-29.23 -29.62)"/><polygon class="cls-7" points="1638.46 1191.61 1628.15 1373.16 1795.26 1377.29 1782.88 1309.2 1638.46 1191.61 1638.46 1191.61"/><path class="cls-6" d="M1632.62,1466.75l-13.41,285.74-103.16-.52.52,209.41,246-1.55c-8.51-175.62,39.2-249.06,51.58-352.79l1-142.36-182.59,2.07Zm50.1,335.36a62.41,62.41,0,1,1-62.41,62.41,62.42,62.42,0,0,1,62.41-62.41Zm21.66-184.65a62.41,62.41,0,1,1-62.41,62.41,62.42,62.42,0,0,1,62.41-62.41Z" transform="translate(-29.23 -29.62)"/><path class="cls-7" d="M1632.62,1466.75l-4.58,97.61,67.27,39.64s-46.77,6.87-52.27,53.64a76.41,76.41,0,0,0-.41,13.18,62.41,62.41,0,1,1,61.75,71.46c-2,0-4-.1-5.91-.28,4.27,10.38,3.31,29,2.34,36.67-1.38,11-77,13.76-78.4,63.27-.08,2.91-.25,5.7-.49,8.4a62.5,62.5,0,1,1-1.61,14.18c0-1,0-2,.07-3.06-6.76,34.76-29.46,47.68-61.23,46.51-16.7-.62-30.62-11-42.76-19l.18,72.46,246-1.55c-8.51-175.62,39.2-249.06,51.58-352.79l1-142.36-182.59,2.07Z" transform="translate(-29.23 -29.62)"/><path class="cls-8" d="M1515,1976.34l91.82,117.6,32-2.07-95.93-115.53s-28.89,1-27.86,0Z" transform="translate(-29.23 -29.62)"/><path class="cls-8" d="M1572.8,1980.46l80.47,101.1,29.91-2.06-88.72-103.16s-22.69,3.09-21.66,4.12Z" transform="translate(-29.23 -29.62)"/><path class="cls-8" d="M1633.67,1985.62c6.18,4.13,73.24,84.59,73.24,84.59l12.38-8.25-61.9-78.4s-24.76-1-23.72,2.06Z" transform="translate(-29.23 -29.62)"/><path class="cls-8" d="M1690.4,1986.65l43.33,60.87,18.56-16.51-40.23-46.42s-22.69,0-21.66,2.06Z" transform="translate(-29.23 -29.62)"/><path class="cls-6" d="M1625.42,1243.92l-21.66,420.88-77.37,1L1562.5,1278l62.92-34Zm-51.53,187.86a15.48,15.48,0,1,1-15.47,15.47,15.48,15.48,0,0,1,15.47-15.47Zm0,73.24a15.48,15.48,0,1,1-15.47,15.47,15.48,15.48,0,0,1,15.47-15.47Zm-4.12,80.46a15.48,15.48,0,1,1-15.48,15.48,15.48,15.48,0,0,1,15.48-15.48Z" transform="translate(-29.23 -29.62)"/><path class="cls-7" d="M1625.42,1243.92,1609,1563.58l-32.4-27.84a15.48,15.48,0,1,0-18.14-15.6l-17.11-14.7L1562.5,1278l62.92-34Zm-51.53,187.86a15.48,15.48,0,1,1-15.47,15.47,15.48,15.48,0,0,1,15.47-15.47Z" transform="translate(-29.23 -29.62)"/><path class="cls-8" d="M1536.71,1685.44l61.38-.52,1,10.83h-61.38s-.52-9.28-1-10.31Z" transform="translate(-29.23 -29.62)"/><path class="cls-8" d="M1536.19,1706.59l60.87-.52-1,15-58.28-1s0-13.41-1.55-13.41Z" transform="translate(-29.23 -29.62)"/><path class="cls-6" d="M1529.51,1345.55s-18.57,220.76-18.57,231.07-62.93,9.29-68.09,3.1-41.25-206.31-35.07-216.63,51.58-17.54,54.68,4.13,2.06,74.27,9.28,60.86,4.13-68.09,12.38-72.21,36.11-14.44,45.39-10.32Z" transform="translate(-29.23 -29.62)"/><path class="cls-7" d="M1526.49,1381.57c-5.26,63-15.55,187.37-15.55,195,0,10.32-62.93,9.29-68.09,3.1-2.4-2.88-11.5-47.79-19.93-96,7.92-14.67-1.34-35.48,2.72-52.4,4.95-20.63,9.08,11.55,30.54,34.66s67.67-83.35,67.67-83.35c.88-.38,1.76-.71,2.64-1Z" transform="translate(-29.23 -29.62)"/><path class="cls-5" d="M1529.51,1345.55l-.53,6.33c-11.68.35-30.82,2.92-36.49,11.74-7.43,11.56-4.54,15.68-12.38,19a12.74,12.74,0,0,1-2.17.72c1.08-13.77,2.51-25.62,6.18-27.45,8.26-4.13,36.11-14.44,45.39-10.32Zm-122.43,24c0-3.35.18-5.61.7-6.48,6.19-10.32,51.58-17.54,54.68,4.13l.22,1.64c-9.4-4.65-27.16-8.43-44.46-3.18a116.12,116.12,0,0,0-11.14,3.89Z" transform="translate(-29.23 -29.62)"/><path class="cls-7" d="M1351,1390.94c0,9.29,17.54,87.69,23.73,144.42s25.8,65,33,65,22.7,12.38,24.76-7.22-44.35-219.73-44.35-219.73-12.38-3.09-15.48,10.32-8.25,14.44-8.25,14.44-11.35-7.22-13.42-7.22Z" transform="translate(-29.23 -29.62)"/><path class="cls-8" d="M1368.7,1491.69c2.41,15,4.58,30,6.07,43.67,6.19,56.74,25.8,65,33,65s22.7,12.38,24.76-7.22c.92-8.77-7.86-53.67-17.84-100.62-13.36,8.89-32.8,4.51-46-.82Z" transform="translate(-29.23 -29.62)"/><path class="cls-5" d="M1351,1390.94a100.29,100.29,0,0,0,1.62,11.69c2.7,3.8,5.1,4.11,11.91,7.21,9.08,4.12,12.38-9.08,18.57-20.22,2.49-4.48,5-6.16,7.2-6.86l-2.15-9.36s-12.38-3.09-15.48,10.32-8.25,14.44-8.25,14.44-11.35-7.22-13.42-7.22Z" transform="translate(-29.23 -29.62)"/><path class="cls-4" d="M1346.92,1555c-13.41-5.16-45.39-8.25-66,17.54s-71.71,88.2-92.86,81.5-42.3-34-30.43-50,51.06-65,54.16-76.34-2.07-8.77-6.71-7.22-31,7.22-61.89,8.25-104.2,9.81-121.73-20.11-3.1-47.46,26.82-43.33,96.45,18.57,116,12.9,5.16-8.26,1.55-8.26-28.89,7.74-82.53-26.3-71.18-87.69-41.26-88.72c23.23-.8,83.3,44.7,116.71,67,9.6,6.41,17,10.9,20.69,11.82,16.51,4.12,34.87,8.87,34.87,8.87s-72.21-41.26-104.19-72.21c-27.29-26.41-20.07-92,15.56-60.45,22.28,19.74,69,63.86,110.93,84,12.21,5.87,20.19,3.29,20,.22,0,0-69.12-37.14-82.53-62.93s.09-49,16.6-47.45,35.49,17,60.76,52.1,68.6,51.06,68.6,51.06,25.79,167.63,26.85,168.14Z" transform="translate(-29.23 -29.62)"/><path class="cls-5" d="M1191.78,1283.79c16.25,2.1,35,17.65,59.69,52a129,129,0,0,0,22.07,23.35c-14.55-4.25-31.72-18.15-47.62-38.39-13.56-17.26-26.66-29.46-34.14-36.93Z" transform="translate(-29.23 -29.62)"/><path class="cls-6" d="M1206.49,1376.17a240.43,240.43,0,0,0,30.15,17.65c12.21,5.87,20.19,3.29,20,.22,0,0-69.12-37.14-82.53-62.93-10.71-20.59-4.25-39.55,7.2-45.55,2,17.44,8.84,56.51,29.74,69.81,27.23,17.33,66.84,31.36,59.42,42.92s-28.89,4.12-52.82-13.21c-3.49-2.52-7.26-5.55-11.16-8.91Z" transform="translate(-29.23 -29.62)"/><path class="cls-6" d="M1176,1432.31a19.4,19.4,0,0,0,3.44,1.34c16.51,4.13,34.87,8.87,34.87,8.87s-72.21-41.26-104.19-72.21c-18.71-18.1-21.2-54.61-9.44-65.64,1.26,22.12,20,65.83,36.07,70.51,19.81,5.78,35.48,1.65,34.66,14.86s42.09,42.08,52,48.68,26.41,9.91,8.26,12.38c-12.55,1.72-34.54-6.82-55.66-18.79Z" transform="translate(-29.23 -29.62)"/><path class="cls-6" d="M1072.07,1469.06c32.79,5.61,76.9,13.5,92.24,9.06,19.6-5.68,5.16-8.26,1.55-8.26s-28.89,7.74-82.53-26.3c-52.41-33.27-70.35-85.23-43.23-88.56-1.33,16.42,6.93,50.27,48.82,74.65,55.29,32.18,110.58,22.28,106.45,37.13-3.92,14.13-57.08,30.49-123.3,2.28Z" transform="translate(-29.23 -29.62)"/><path class="cls-6" d="M1346.92,1555c-13.41-5.16-45.39-8.25-66,17.54s-71.71,88.2-92.86,81.5-42.3-34-30.43-50,51.06-65,54.16-76.34-2.07-8.77-6.71-7.22-31,7.22-61.89,8.25-104.2,9.81-121.73-20.11c-5.1-8.69-7.49-16.34-7.59-22.71,23.57,28.79,108.68,28.51,134.5,23,27.23-5.78,99-11.55,128.74,9.9,19,13.75,43.84-6,60.28-21,5,31.24,9.14,56.94,9.55,57.14Z" transform="translate(-29.23 -29.62)"/><path class="cls-1" d="M2229.43,995.66s-28.89,18.57-134.1-25.79-191.88-94.9-245.52-81.49S1755.94,940,1755.94,940l-23.73-18.56s48.14-70.84,131.69-73.93,159.21,61.55,237.61,81.15,144.43,30.94,144.43,30.94-17.54,34.05-16.51,36.11Z" transform="translate(-29.23 -29.62)"/><path class="cls-1" d="M2346.52,871.58s-111.41,35.07-187.74,163-84.6,216.63-94.91,326c-30.7,325.49-267,915.39-676.7,753,0,0-25.79,4.65-22.18,38.17s146,36.63,194.45,29.41,157.34-1.55,314.13-185.17c84.77-99.27,135.58-218.07,172.5-318.49,74.45-202.45,49.84-443.39,141.12-601.66C2277.34,919.52,2381.14,917,2381.14,917s-19.61-46.42-34.62-45.39Z" transform="translate(-29.23 -29.62)"/><path class="cls-6" d="M2384.06,852.91s-38.17,13.41-37.65,23.72,5.67,44.88,5.67,44.88,26.3-6.2,25.27-9.29,6.19-58.28,6.71-59.31Z" transform="translate(-29.23 -29.62)"/><path class="cls-5" d="M2384.06,852.91s-38.17,13.41-37.65,23.72c.1,2.08.39,5.14.8,8.7,8-7,27.11-22,32-22.69a12.82,12.82,0,0,0,3.5-1c.7-5.09,1.22-8.52,1.34-8.77Z" transform="translate(-29.23 -29.62)"/><path class="cls-4" d="M1397.28,2129.08s8.26,8.77-1,19.61-14.44,11.86-14.44,11.86,90.27,44.35,252.23-5.16S1887.8,1963.52,1918.75,1914s120.72-231.06,149.61-371.36c47.73-231.87,8.16-512.75,267.18-635.45l-3.36-20.38c-252.78,141.27-243.79,389.45-267,600.4-22,199.53-166.23,467.29-288.7,566.06-127.91,103.15-284.72,132-379.19,75.81Z" transform="translate(-29.23 -29.62)"/><path class="cls-1" d="M1651.73,1203.52s-116.57,265.64-244.48,412.12-257.89,178.71-319.78,191.09c0,0-16.51-9.53-10.32-35.33,0,0,151.64-21.66,284.71-164s251.2-415.72,251.2-415.72,41.77,9.8,38.67,11.86Z" transform="translate(-29.23 -29.62)"/><path class="cls-4" d="M2199.82,961.37s-85.62-13.93-139.26-34-136.17-68.6-194.46-71.18-130,69.81-130,69.81l18.56,5.5s50-64.82,119.15-56.57,138.24,50.9,170.73,65.34,141.84,42.29,141.84,42.29,12.89-20.11,13.41-21.14Z" transform="translate(-29.23 -29.62)"/><path class="cls-7" d="M1618.54,1201.2s-93.88,211.47-166.09,309.46-154.75,179.5-251.72,228-118.11,41.78-118.11,41.78l6.18,15.48s73.25-4.65,204.26-91.3,232.1-278.52,232.1-278.52l109.35-217.66s-14.44-8.25-16-7.22Z" transform="translate(-29.23 -29.62)"/><path class="cls-5" d="M2587.74,1452.54l-.82,27.71s184.66-22.69,252.74-167.11l-12.29-5.85c-68.89,104.24-182.61,135.79-239.63,145.25Z" transform="translate(-29.23 -29.62)"/><path class="cls-6" d="M2589.32,1398.22l-1.51,30.71c137.84-27.49,193.54-102.27,211.7-134.89l-28.87-13.73c-44.28,71.63-130,104.25-181.32,117.91Z" transform="translate(-29.23 -29.62)"/><path class="cls-7" d="M2592.08,1303.85l-1.6,54.78c85.38-18.93,132.19-71.4,148.53-93.37L2690.07,1242s-17.55,41.26-98,61.88Z" transform="translate(-29.23 -29.62)"/><path class="cls-8" d="M1682.72,1815.52a49,49,0,1,1-49,49,49,49,0,0,1,49-49Zm0,28.88a20.12,20.12,0,1,1-20.12,20.12,20.12,20.12,0,0,1,20.12-20.12Z" transform="translate(-29.23 -29.62)"/><path class="cls-8" d="M1704.38,1630.87a49,49,0,1,1-49,49,49,49,0,0,1,49-49Zm0,28.88a20.12,20.12,0,1,1-20.12,20.12,20.12,20.12,0,0,1,20.12-20.12Z" transform="translate(-29.23 -29.62)"/><path class="cls-8" d="M1449.59,1805.72c0-4.12,2.58-11.35,17-16s36.11-1.54,36.11-1.54l1.55,42.29s-43.33,1-43.84-1.29,0-8.25,0-8.25,13.93,5.16,15.73-7.22-21.67-9.29-26.57-8Z" transform="translate(-29.23 -29.62)"/><path class="cls-6" d="M2598.61,1159.72a27,27,0,0,1-33.21-42.34,27,27,0,1,0,33.21,42.34Z" transform="translate(-29.23 -29.62)"/><path class="cls-10" d="M2374.43,1930c-79.23-1.65-275.65,16.51-354.87,102.33s-99,161.75-23.1,120.49S2244,1996,2324.91,1972.89s108.93-44.57,49.52-42.92Z" transform="translate(-29.23 -29.62)"/><path class="cls-10" d="M2135.1,2128c16.51-21.46,485.25-168.36,392.82-122.15s-168.35,75.93-90.78,72.63,349.92-85.83,260.78-6.6-503.4,269-531.46,211.27,66-115.54-34.66-94.08-61.07-28.07,3.3-61.07Z" transform="translate(-29.23 -29.62)"/><path class="cls-10" d="M2153.5,1346.56c16.51,19.8,66,92.43,47.87,173.3s-29.71,189.81-24.76,236-13.21,38-72.62,74.27-90.78,95.73-100.68,71-23.12-66,18.15-84.18,112.23-143.59,110.58-184.86,0-245.92,21.46-285.53Z" transform="translate(-29.23 -29.62)"/><path class="cls-10" d="M1943.24,971.3c-11.34,22.69-131,110.38-179.49,117.6s-68.08-25.79-31-36.11,138.23-76.34,178.46-86.65,59.83-16.5,32,5.16Z" transform="translate(-29.23 -29.62)"/><path class="cls-10" d="M1489.35,949.64c15.47,50.54,60.86,90.78,89.75,79.43s157.83-61.9,139.26-61.9-214.57,24.76-184.65,5.16-15.47-33-44.36-22.69Z" transform="translate(-29.23 -29.62)"/><path class="cls-10" d="M2004.2,1029.39c-19.94,25.45-67.39,99.72-42.64,97s158.17-99,125.17-92.15-86,57.08-83.22,30.26,30.27-55.71.69-35.08Z" transform="translate(-29.23 -29.62)"/><path class="cls-5" d="M2581.26,3080.68c-11.31,49.93-48.18,79.55-126.43,38.65-90.78-47.46-109.34-165.06-175.36-241.39-62-71.73-57.64-114.48-26.36-147.07.52,22.46-8.07,30.62,47.81,119.62s133.92,196.4,168.49,212.51c45.55,21.23,85.78,51.06,111.85,17.68Z" transform="translate(-29.23 -29.62)"/><path class="cls-10" d="M2561.23,2975.31s33,93.83,0,104.54-90.78-38.65-92.84-53.28,46.07-7.44,64.64,7.35,28.2-27.66,28.2-58.61Z" transform="translate(-29.23 -29.62)"/><path class="cls-10" d="M1306.1,992.72c-4.13,18.57-7.42,28.48-30.53,32.19s-163-20.22-160.93-34.25,108.52-1.24,124.2-16.5-31.77-19.81-12-27.65,21.46.82,35.08-.41,45-22.29,52-27.65,15.27-.41,4.13,21-14,49.93-12,53.23Z" transform="translate(-29.23 -29.62)"/><path class="cls-5" d="M1234.65,3388.54c-35.27,11.83-77.13,10-101.3-67-33-105.23,111.41-222.83,123.79-280.6s24.76-90.77,49.52-94.9c6.55-1.09,17.44,1.14,30.44,5.09-6.16,7.67-13.28,19.84-17.76,38.24-9.28,38.17-11.35,41.26-85.62,154.73-72.45,110.69-67.34,228.22.93,244.47Z" transform="translate(-29.23 -29.62)"/><path class="cls-5" d="M1053.43,1364.45s67.68,36.31,86.66,50.34,31.36,20.63,14.85,20.63-103.16-62.71-101.51-71Z" transform="translate(-29.23 -29.62)"/><path class="cls-5" d="M1112.85,1314.94s58.29,61.17,85.52,70.25c32.51,10.83,15.47,3.14,6.86-3.18-21.63-15.86-91.66-75.68-92.38-67.07Z" transform="translate(-29.23 -29.62)"/><path class="cls-5" d="M1065,1477.51c-7.43-3.3-46.22-6.6-46.22,2.48s37.14,7.43,46.22-2.48Z" transform="translate(-29.23 -29.62)"/><path class="cls-10" d="M1311.69,1420.25c1,24.76,23.73,67,4.13,75.3s-33,9.29-45.4,3.1-54.67-14.44-42.29-16.51,51.58,9.29,41.26-12.38-36.1-42.29-15.47-37.13,34-20.63,42.3-32,13.41,17.53,15.47,19.6Z" transform="translate(-29.23 -29.62)"/><path class="cls-3" d="M3383.38,2675.81c105,57.4,251.63,164.1,247.12,255.23-7.21,145.37-571.19,9.37-648.87-11.82-612.31-167-2090-809.66-2524.5-1282.2-260.21-283,18.37-263.72,270.76-208.65q3.66-9.18,7.43-18.29c-295.87-74-641.6-93.9-349.14,248,429.18,501.74,1951.87,1172.45,2576.64,1350.37,122.87,35,795.39,214.31,760.57-91.47-16.54-145.28-161.94-263.06-294-333q-21.43,46.82-46,91.81Z" transform="translate(-29.23 -29.62)"/></svg>